<svg width="20" height="20" viewBox="0 0 20 20" fill="none" xmlns="http://www.w3.org/2000/svg">
<path d="M8.33366 2.29199C11.6704 2.29199 14.3753 4.99694 14.3753 8.33366C14.3753 9.77689 13.8693 11.1019 13.0249 12.141L17.1089 16.225C17.353 16.4691 17.353 16.8649 17.1089 17.1089C16.887 17.3308 16.5398 17.351 16.2951 17.1694L16.225 17.1089L12.141 13.0249C11.1019 13.8693 9.77689 14.3753 8.33366 14.3753C4.99694 14.3753 2.29199 11.6704 2.29199 8.33366C2.29199 4.99694 4.99694 2.29199 8.33366 2.29199ZM8.33366 3.54199C5.68729 3.54199 3.54199 5.68729 3.54199 8.33366C3.54199 10.98 5.68729 13.1253 8.33366 13.1253C10.98 13.1253 13.1253 10.98 13.1253 8.33366C13.1253 5.68729 10.98 3.54199 8.33366 3.54199Z" fill="#182230"/>
</svg>
