<svg width="23" height="19" viewBox="0 0 23 19" fill="none" xmlns="http://www.w3.org/2000/svg">
<path d="M5.5 7.5L5 7L7 3.5L4.5 4.5L2 3.5L4 7L0.5 12V15L3 17H3.5M2.5 7H6M17.5 7.5L18 7L16 3.5L18.5 4.5L21 3.5L19 7L22.5 12V15L20 17H19.5M20.5 7H17M12.5 11H10.5L10 12L10.5 13H12.5L13 14L12.5 15H10.5M11.5 11V10M11.5 16V15" stroke="#F4F4F4" stroke-miterlimit="10" stroke-linecap="round" stroke-linejoin="round"/>
<path d="M11.5 0.5L13.5 2L16 0.5L13.5 6L17.5 11V16L13.5 18H9.5L5.5 16V11L9.5 6L7 0.5L9.5 2L11.5 0.5Z" stroke="#F4F4F4" stroke-miterlimit="10" stroke-linejoin="round"/>
<path d="M15.5 6H7.5" stroke="#F4F4F4" stroke-miterlimit="10" stroke-linecap="round" stroke-linejoin="round"/>
</svg>
