<svg width="20" height="20" viewBox="0 0 20 20" fill="none" xmlns="http://www.w3.org/2000/svg">
<path d="M8.33366 2.29175C11.6704 2.29175 14.3753 4.99669 14.3753 8.33341C14.3753 9.77664 13.8693 11.1017 13.0249 12.1408L17.1089 16.2248C17.353 16.4689 17.353 16.8646 17.1089 17.1087C16.887 17.3306 16.5398 17.3507 16.2951 17.1692L16.225 17.1087L12.141 13.0247C11.1019 13.869 9.77689 14.3751 8.33366 14.3751C4.99694 14.3751 2.29199 11.6701 2.29199 8.33341C2.29199 4.99669 4.99694 2.29175 8.33366 2.29175ZM8.33366 3.54175C5.68729 3.54175 3.54199 5.68705 3.54199 8.33341C3.54199 10.9798 5.68729 13.1251 8.33366 13.1251C10.98 13.1251 13.1253 10.9798 13.1253 8.33341C13.1253 5.68705 10.98 3.54175 8.33366 3.54175Z" fill="#F7F7F7"/>
</svg>
